<?xml version="1.0" encoding="UTF-8"?>
<svg width="181px" height="115px" viewBox="0 0 181 115" version="1.1" xmlns="http://www.w3.org/2000/svg"
    xmlns:xlink="http://www.w3.org/1999/xlink">
    <title>Group 22</title>
    <defs>
        <linearGradient x1="-1.22848797%" y1="50%" x2="100%" y2="50%" id="linearGradient-1">
            <stop stop-color="#E22320" offset="0%"></stop>
            <stop stop-color="#8B201A" offset="99.9666781%"></stop>
        </linearGradient>
    </defs>
    <g id="Page-1" stroke="none" stroke-width="1" fill="none" fill-rule="evenodd">
        <g transform="translate(-631.000000, -90.000000)" fill="url(#linearGradient-1)">
            <g id="Group-7" transform="translate(320.000000, 90.000000)">
                <g id="Group-22" transform="translate(311.000000, 0.000000)">
                    <g id="Group-6">
                        <g id="Group-13">
                            <path
                                d="M117.445696,4.39495184e-13 L180.135677,103.798465 L163.771643,114.219521 L117.445696,38.2663997 L108.204761,52.4345462 L96.8510517,34.7349291 L117.445696,4.39495184e-13 Z M62.8724316,5.38971167e-13 L125.562413,103.798465 L109.198378,114.219521 L62.8724316,38.2663997 L16.1833032,114.219521 L1.40563889e-14,104.531835 L62.8724316,5.38971167e-13 Z M167.130623,0.580808081 C174.665618,0.580808081 180.773939,6.82168733 180.773939,14.520202 C180.773939,22.2187167 174.665618,28.459596 167.130623,28.459596 C159.595627,28.459596 153.487307,22.2187167 153.487307,14.520202 C153.487307,6.82168733 159.595627,0.580808081 167.130623,0.580808081 Z M167.130623,6.38888889 C162.735209,6.38888889 159.172022,10.0294018 159.172022,14.520202 C159.172022,19.0110023 162.735209,22.6515152 167.130623,22.6515152 C171.526037,22.6515152 175.089224,19.0110023 175.089224,14.520202 C175.089224,10.0294018 171.526037,6.38888889 167.130623,6.38888889 Z"
                                id="Combined-Shape"></path>
                        </g>
                    </g>
                </g>
            </g>
        </g>
    </g>
</svg>
